# Blender v2.79 (sub 0) OBJ File: 'plup.blend'
# www.blender.org
mtllib plup.mtl
o Cube
v 0.860472 -1.000000 -0.860472
v 0.860472 -1.000000 0.860472
v -0.860472 -1.000000 0.860472
v -0.860472 -1.000000 -0.860472
v 0.922260 1.515569 -0.938516
v 0.930148 1.515569 1.000001
v -1.000000 1.515569 1.000000
v -1.000000 1.515569 -1.000000
v 0.594980 1.911172 -0.594979
v 0.594979 1.911172 0.594980
v -0.594980 1.911172 -0.594980
v -0.594980 1.911172 0.594980
v 0.292503 0.446844 -1.333284
v -0.292503 0.446844 -1.333284
v 0.292503 1.233546 -1.333283
v 0.292503 0.446844 1.333284
v -0.292503 0.446844 1.333284
v 0.292503 1.233546 1.333285
v -0.292503 1.233546 1.333283
v -0.292503 1.233546 -1.333284
v 0.292503 0.446844 -1.433674
v -0.292503 0.446844 -1.433674
v 0.292503 1.233546 -1.433673
v 0.292503 0.446844 1.433674
v -0.292503 0.446844 1.433673
v 0.292503 1.233546 1.433675
v -0.292503 1.233546 1.433673
v -0.292503 1.233546 -1.433674
v 0.292503 -0.374336 -1.333284
v -0.292503 -0.374336 -1.333284
v 0.292503 -0.374336 1.333284
v -0.292503 -0.374336 1.333284
v 0.292503 -0.374336 -1.433674
v -0.292503 -0.374336 -1.433674
v 0.292503 -0.374336 1.433674
v -0.292503 -0.374336 1.433673
v 0.828959 1.997030 -0.828958
v 0.828958 1.997030 0.828959
v -0.828959 1.997030 -0.828959
v -0.828959 1.997030 0.828958
v 0.828959 2.357334 -0.134199
v 0.828958 2.357334 0.134200
v -0.828959 2.357334 -0.134199
v -0.828959 2.357334 0.134200
v 0.828959 2.347307 -0.828958
v -0.828959 2.347307 -0.828959
v 0.828958 2.347307 0.828959
v -0.828959 2.347307 0.828958
v 0.828959 2.707611 -0.134199
v -0.828959 2.707611 -0.134199
v 0.828958 2.707611 0.134200
v -0.828959 2.707611 0.134200
v 0.860472 -1.000000 0.000000
v -0.860472 -1.000000 -0.000000
v 1.236211 1.238116 0.000001
v -1.093352 1.515569 -0.000000
v 0.594980 1.911172 0.000000
v -0.594980 1.911172 0.000000
v 0.828959 1.997030 0.000001
v -0.828959 1.997030 -0.000000
v 0.828959 2.357334 0.000000
v -0.828959 2.357334 0.000000
v 0.896417 0.463434 -0.905874
v 0.901006 0.463434 0.941643
v -0.941643 0.463434 0.941642
v -0.941642 0.463434 -0.941643
v 0.292503 0.904509 -1.333284
v 0.292503 0.904509 1.333284
v -0.292503 0.904509 1.333283
v -0.292503 0.904509 -1.333284
v 0.292503 0.904509 -1.433673
v 0.292503 0.904509 1.433674
v -0.292503 0.904509 1.433673
v -0.292503 0.904509 -1.433674
v -0.995950 0.463434 -0.000000
v 1.079059 0.302026 0.000000
vn 0.0000 -1.0000 0.0000
vn 0.9603 -0.0976 0.2615
vn 0.5780 -0.0301 -0.8155
vn 0.9557 -0.0926 -0.2793
vn 0.9895 -0.0929 -0.1108
vn 0.5415 -0.0469 0.8394
vn 0.9897 -0.0959 0.1064
vn -0.6487 0.7601 0.0380
vn 0.4978 -0.0471 0.8660
vn -0.9943 -0.0757 -0.0756
vn -0.5168 -0.0579 0.8541
vn 0.0144 0.6864 -0.7270
vn -0.0000 0.7154 0.6987
vn 0.7361 0.6763 -0.0284
vn -1.0000 -0.0000 0.0000
vn 0.0000 1.0000 0.0000
vn 0.0150 0.7912 -0.6114
vn -0.4653 -0.0570 -0.8833
vn -0.0000 -0.3106 0.9505
vn 0.0000 -0.3106 -0.9505
vn -0.0000 0.7634 0.6460
vn -0.0000 -0.0000 1.0000
vn 0.0000 0.0000 -1.0000
vn 1.0000 0.0000 0.0000
vn 0.7338 0.6790 0.0227
vn -0.9943 -0.0757 0.0756
vn -0.6487 0.7601 -0.0380
vn -0.9968 -0.0746 0.0300
vn -0.5168 -0.0579 -0.8541
vn 0.5516 -0.0300 -0.8335
vn -0.4653 -0.0570 0.8833
vn -0.9968 -0.0746 -0.0300
vn -0.0000 -0.9388 0.3445
vn 0.3445 -0.9388 0.0000
vn -0.3445 -0.9388 0.0000
vn 0.0000 -0.9388 -0.3445
vn 0.0000 0.8877 -0.4604
vn -0.0000 0.8877 0.4604
usemtl blanco
s off
f 53//1 2//1 3//1 54//1
f 76//2 55//2 6//2 64//2
f 63//3 1//3 13//3 67//3
f 63//4 5//4 55//4 76//4
f 1//1 53//1 54//1 4//1
f 1//5 63//5 76//5 53//5
f 2//6 64//6 68//6 16//6
f 53//7 76//7 64//7 2//7
usemtl Negro
f 56//8 7//8 12//8 58//8
f 64//9 6//9 18//9 68//9
f 75//10 56//10 8//10 66//10
f 65//11 3//11 17//11 69//11
f 5//12 8//12 11//12 9//12
f 7//13 6//13 10//13 12//13
f 55//14 5//14 9//14 57//14
f 70//15 20//15 28//15 74//15
f 18//16 19//16 27//16 26//16
f 8//17 5//17 15//17 20//17
f 66//18 8//18 20//18 70//18
f 3//19 2//19 16//19 17//19
f 1//20 4//20 14//20 13//20
f 6//21 7//21 19//21 18//21
f 72//22 26//22 27//22 73//22
f 71//23 21//23 22//23 74//23
f 68//24 18//24 26//24 72//24
f 67//24 13//24 21//24 71//24
f 20//16 15//16 23//16 28//16
f 69//15 17//15 25//15 73//15
f 17//23 16//23 31//23 32//23
f 16//24 24//24 35//24 31//24
f 32//1 31//1 35//1 36//1
f 29//1 30//1 34//1 33//1
f 13//22 14//22 30//22 29//22
f 25//15 17//15 32//15 36//15
f 21//24 13//24 29//24 33//24
f 24//22 25//22 36//22 35//22
f 14//15 22//15 34//15 30//15
f 22//23 21//23 33//23 34//23
f 6//25 55//25 57//25 10//25
f 65//26 7//26 56//26 75//26
f 8//27 56//27 58//27 11//27
f 3//28 65//28 75//28 54//28
f 19//15 69//15 73//15 27//15
f 15//24 67//24 71//24 23//24
f 16//24 68//24 72//24 24//24
f 23//23 71//23 74//23 28//23
f 24//22 72//22 73//22 25//22
f 4//29 66//29 70//29 14//29
f 5//30 63//30 67//30 15//30
f 14//15 70//15 74//15 22//15
f 7//31 65//31 69//31 19//31
f 54//32 75//32 66//32 4//32
usemtl Marron
f 12//33 10//33 38//33 40//33
f 60//15 40//15 44//15 62//15
f 57//34 9//34 37//34 59//34
f 58//35 12//35 40//35 60//35
f 9//36 11//36 39//36 37//36
f 61//16 62//16 44//16 42//16
f 44//15 40//15 48//15 52//15
f 41//24 37//24 45//24 49//24
f 59//24 37//24 41//24 61//24
f 45//37 46//37 50//37 49//37
f 48//38 47//38 51//38 52//38
f 37//23 39//23 46//23 45//23
f 42//23 44//23 52//23 51//23
f 38//24 42//24 51//24 47//24
f 39//15 43//15 50//15 46//15
f 40//22 38//22 47//22 48//22
f 43//22 41//22 49//22 50//22
f 38//24 59//24 61//24 42//24
f 41//16 43//16 62//16 61//16
f 11//35 58//35 60//35 39//35
f 10//34 57//34 59//34 38//34
f 39//15 60//15 62//15 43//15
