# Blender v2.79 (sub 0) OBJ File: 'snowball.blend'
# www.blender.org
mtllib snowball.mtl
o Icosphere
v 0.000000 -0.333931 -0.000000
v 0.241633 -0.149339 0.175554
v -0.092294 -0.149339 0.284055
v 0.241633 -0.149339 -0.175554
v -0.298676 -0.149339 -0.000000
v -0.092294 -0.149339 -0.284055
v 0.298676 0.149339 0.000000
v 0.092294 0.149339 0.284055
v -0.241633 0.149339 0.175554
v -0.241633 0.149339 -0.175554
v 0.092294 0.149339 -0.284055
v 0.000000 0.333931 0.000000
vt 0.204120 0.434332
vt 0.432336 0.244228
vt 0.432336 0.497699
vt 0.165140 0.126738
vt 0.281831 1.000000
vt 0.250000 0.748852
vt 0.500000 0.904069
vt 0.781831 0.497699
vt 1.000000 0.593630
vt 0.750000 0.748847
vt 0.000000 0.307594
vt 0.369263 0.000000
vt 0.531830 0.497699
vt 0.750000 0.593629
vt 0.500000 0.748852
vt 0.500000 0.593630
vt 1.000000 0.904069
vt 0.250000 0.904069
vt 0.031831 1.000000
vt 0.000000 0.748847
vt 0.750000 0.904069
vt 0.281831 0.497699
vt 0.801598 0.000000
vt 0.864672 0.244228
vt 0.597476 0.126738
vt 0.781831 1.000000
vt 0.250000 0.593630
vt 0.531831 1.000000
vt 0.864672 0.497699
vt 0.636456 0.434332
vt 0.432336 0.307594
vt 0.031831 0.497699
vn 0.1876 -0.7947 0.5774
vn 0.6071 -0.7947 -0.0000
vn -0.4911 -0.7947 0.3568
vn -0.4911 -0.7947 -0.3568
vn 0.1876 -0.7947 -0.5774
vn 0.9822 -0.1876 -0.0000
vn 0.3035 -0.1876 0.9342
vn -0.7946 -0.1876 0.5774
vn -0.7946 -0.1876 -0.5774
vn 0.3035 -0.1876 -0.9342
vn 0.7946 0.1876 0.5774
vn -0.3035 0.1876 0.9342
vn -0.9822 0.1876 0.0000
vn -0.3035 0.1876 -0.9342
vn 0.7946 0.1876 -0.5774
vn 0.4911 0.7947 0.3568
vn -0.1876 0.7947 0.5774
vn -0.6071 0.7947 0.0000
vn -0.1876 0.7947 -0.5774
vn 0.4911 0.7947 -0.3568
usemtl textura
s 1
f 1/1/1 2/2/1 3/3/1
f 2/2/2 1/1/2 4/4/2
f 1/5/3 3/6/3 5/7/3
f 1/8/4 5/9/4 6/10/4
f 1/1/5 6/11/5 4/4/5
f 2/2/6 4/4/6 7/12/6
f 3/13/7 2/14/7 8/15/7
f 5/7/8 3/6/8 9/16/8
f 6/10/9 5/9/9 10/17/9
f 4/18/10 6/19/10 11/20/10
f 2/14/11 7/21/11 8/15/11
f 3/6/12 8/22/12 9/16/12
f 5/23/13 9/24/13 10/25/13
f 6/10/14 10/17/14 11/26/14
f 4/18/15 11/20/15 7/27/15
f 8/15/16 7/21/16 12/28/16
f 9/24/17 8/29/17 12/30/17
f 10/25/18 9/24/18 12/30/18
f 11/31/19 10/25/19 12/30/19
f 7/27/20 11/20/20 12/32/20
