# Blender v2.79 (sub 0) OBJ File: 'portal.blend'
# www.blender.org
mtllib portal.mtl
o pCylinder1
v 3.034752 -0.037630 -0.986051
v 2.581515 -0.037630 -1.875581
v 2.581515 0.093395 -1.875581
v 3.034752 0.093395 -0.986051
v 1.875581 -0.037630 -2.581514
v 1.875581 0.093395 -2.581514
v 0.986051 -0.037630 -3.034752
v 0.986051 0.093395 -3.034752
v 0.000000 -0.037630 -3.190927
v 0.000000 0.093395 -3.190927
v -0.986051 -0.037630 -3.034752
v -0.986051 0.093395 -3.034752
v -1.875579 -0.037630 -2.581514
v -1.875579 0.093395 -2.581514
v -2.581514 -0.037630 -1.875579
v -2.581514 0.093395 -1.875579
v -3.034752 -0.037630 -0.986051
v -3.034752 0.093395 -0.986051
v -3.190927 -0.037631 -0.000000
v -3.190927 0.093395 0.000000
v -3.034752 -0.037631 0.986051
v -3.034752 0.093395 0.986051
v -2.581514 -0.037631 1.875579
v -2.581514 0.093395 1.875579
v -1.875579 -0.037631 2.581514
v -1.875579 0.093395 2.581514
v -0.986051 -0.037631 3.034751
v -0.986051 0.093395 3.034751
v 0.000000 -0.037631 3.190926
v 0.000000 0.093395 3.190926
v 0.986050 -0.037631 3.034751
v 0.986050 0.093395 3.034751
v 1.875579 -0.037631 2.581513
v 1.875579 0.093395 2.581513
v 2.581513 -0.037631 1.875579
v 2.581513 0.093395 1.875579
v 3.034750 -0.037631 0.986050
v 3.034750 0.093395 0.986050
v 3.190925 -0.037631 -0.000000
v 3.190925 0.093395 0.000000
v 0.000000 -0.037631 -0.000000
v 2.718401 0.449169 -0.883262
v 2.312410 0.449169 -1.680064
v 0.000000 0.449169 0.000000
v 1.680064 0.449169 -2.312410
v 0.883262 0.449169 -2.718401
v 0.000000 0.449169 -2.858295
v -0.883262 0.449169 -2.718400
v -1.680064 0.449169 -2.312409
v -2.312409 0.449169 -1.680063
v -2.718400 0.449169 -0.883262
v -2.858295 0.449169 0.000000
v -2.718400 0.449169 0.883261
v -2.312409 0.449169 1.680063
v -1.680063 0.449169 2.312408
v -0.883262 0.449169 2.718400
v 0.000000 0.449169 2.858294
v 0.883261 0.449169 2.718399
v 1.680063 0.449169 2.312408
v 2.312408 0.449169 1.680063
v 2.718399 0.449169 0.883261
v 2.858294 0.449169 0.000000
v 2.312410 0.093395 -1.680064
v 2.718401 0.093395 -0.883262
v 1.680064 0.093395 -2.312410
v 0.883262 0.093395 -2.718401
v 0.000000 0.093395 -2.858295
v -0.883262 0.093395 -2.718400
v -1.680064 0.093395 -2.312409
v -2.312409 0.093395 -1.680063
v -2.718400 0.093395 -0.883262
v -2.858295 0.093395 0.000000
v -2.718400 0.093395 0.883261
v -2.312409 0.093395 1.680063
v -1.680063 0.093395 2.312408
v -0.883262 0.093395 2.718400
v 0.000000 0.093395 2.858294
v 0.883261 0.093395 2.718399
v 1.680063 0.093395 2.312408
v 2.312408 0.093395 1.680063
v 2.718399 0.093395 0.883261
v 2.858294 0.093395 0.000000
v 2.312410 2.556872 -1.680064
v 2.718401 2.556872 -0.883262
v 1.680064 2.556872 -2.312410
v 0.883262 2.556872 -2.718401
v 0.000000 2.556872 -2.858295
v -0.883262 2.556872 -2.718400
v -1.680064 2.556872 -2.312409
v -2.312409 2.556872 -1.680063
v -2.718400 2.556872 -0.883262
v -2.858295 2.556872 0.000000
v -2.718400 2.556872 0.883261
v -2.312409 2.556872 1.680063
v -1.680063 2.556872 2.312408
v -0.883262 2.556872 2.718400
v 0.000000 2.556872 2.858294
v 0.883261 2.556872 2.718399
v 1.680063 2.556872 2.312408
v 2.312408 2.556872 1.680063
v 2.718399 2.556872 0.883261
v 2.858294 2.556872 0.000000
vt 0.648603 0.892034
vt 0.626409 0.935591
vt 0.626409 0.935591
vt 0.648603 0.892034
vt 0.591841 0.970159
vt 0.591841 0.970159
vt 0.548284 0.992353
vt 0.548284 0.992353
vt 0.500000 1.000000
vt 0.500000 1.000000
vt 0.451716 0.992353
vt 0.451716 0.992353
vt 0.408159 0.970159
vt 0.408159 0.970159
vt 0.373591 0.935591
vt 0.373591 0.935591
vt 0.351397 0.892034
vt 0.351397 0.892034
vt 0.343750 0.843750
vt 0.343750 0.843750
vt 0.351397 0.795466
vt 0.351397 0.795466
vt 0.373591 0.751909
vt 0.373591 0.751909
vt 0.408159 0.717341
vt 0.408159 0.717341
vt 0.451716 0.695147
vt 0.451716 0.695147
vt 0.500000 0.687500
vt 0.500000 0.687500
vt 0.548284 0.695147
vt 0.548284 0.695147
vt 0.591842 0.717341
vt 0.591842 0.717341
vt 0.626409 0.751908
vt 0.626409 0.751908
vt 0.648603 0.795466
vt 0.648603 0.795466
vt 0.656250 0.843750
vt 0.656250 0.843750
vt 0.626409 0.935591
vt 0.648603 0.892034
vt 0.591841 0.970159
vt 0.548284 0.992353
vt 0.500000 1.000000
vt 0.451716 0.992353
vt 0.408159 0.970159
vt 0.373591 0.935591
vt 0.351397 0.892034
vt 0.343750 0.843750
vt 0.351397 0.795466
vt 0.373591 0.751909
vt 0.408159 0.717341
vt 0.451716 0.695147
vt 0.500000 0.687500
vt 0.548284 0.695147
vt 0.591842 0.717341
vt 0.626409 0.751908
vt 0.648603 0.795466
vt 0.656250 0.843750
vt 0.000000 0.000000
vt 1.000000 0.000000
vt 1.000000 1.000000
vt 0.000000 1.000000
vt 0.000000 0.000000
vt 1.000000 0.000000
vt 1.000000 1.000000
vt 0.000000 1.000000
vt 0.000000 0.000000
vt 1.000000 0.000000
vt 1.000000 1.000000
vt 0.000000 1.000000
vt 0.000000 0.000000
vt 1.000000 0.000000
vt 1.000000 1.000000
vt 0.000000 1.000000
vt 0.000000 0.000000
vt 1.000000 0.000000
vt 1.000000 1.000000
vt 0.000000 1.000000
vt 0.000000 0.000000
vt 1.000000 0.000000
vt 1.000000 1.000000
vt 0.000000 1.000000
vt 0.000000 0.000000
vt 1.000000 0.000000
vt 1.000000 1.000000
vt 0.000000 1.000000
vt 0.000000 0.000000
vt 1.000000 0.000000
vt 1.000000 1.000000
vt 0.000000 1.000000
vt 0.000000 0.000000
vt 1.000000 0.000000
vt 1.000000 1.000000
vt 0.000000 1.000000
vt 0.000000 0.000000
vt 1.000000 0.000000
vt 1.000000 1.000000
vt 0.000000 1.000000
vt 0.000000 0.000000
vt 1.000000 0.000000
vt 1.000000 1.000000
vt 0.000000 1.000000
vt 0.000000 0.000000
vt 1.000000 0.000000
vt 1.000000 1.000000
vt 0.000000 1.000000
vt 0.000000 0.000000
vt 1.000000 0.000000
vt 1.000000 1.000000
vt 0.000000 1.000000
vt 0.000000 0.000000
vt 1.000000 0.000000
vt 1.000000 1.000000
vt 0.000000 1.000000
vt 0.000000 0.000000
vt 1.000000 0.000000
vt 1.000000 1.000000
vt 0.000000 1.000000
vt 0.000000 0.000000
vt 1.000000 0.000000
vt 1.000000 1.000000
vt 0.000000 1.000000
vt 0.000000 0.000000
vt 1.000000 0.000000
vt 1.000000 1.000000
vt 0.000000 1.000000
vt 0.000000 0.000000
vt 1.000000 0.000000
vt 1.000000 1.000000
vt 0.000000 1.000000
vt 0.000000 0.000000
vt 1.000000 0.000000
vt 1.000000 1.000000
vt 0.000000 1.000000
vt 0.000000 0.000000
vt 1.000000 0.000000
vt 1.000000 1.000000
vt 0.000000 1.000000
vt 0.375000 0.312500
vt 0.387500 0.312500
vt 0.387500 0.688440
vt 0.375000 0.688440
vt 0.400000 0.312500
vt 0.400000 0.688440
vt 0.412500 0.312500
vt 0.412500 0.688440
vt 0.425000 0.312500
vt 0.425000 0.688440
vt 0.437500 0.312500
vt 0.437500 0.688440
vt 0.450000 0.312500
vt 0.450000 0.688440
vt 0.462500 0.312500
vt 0.462500 0.688440
vt 0.475000 0.312500
vt 0.475000 0.688440
vt 0.487500 0.312500
vt 0.487500 0.688440
vt 0.500000 0.312500
vt 0.500000 0.688440
vt 0.512500 0.312500
vt 0.512500 0.688440
vt 0.525000 0.312500
vt 0.525000 0.688440
vt 0.537500 0.312500
vt 0.537500 0.688440
vt 0.550000 0.312500
vt 0.550000 0.688440
vt 0.562500 0.312500
vt 0.562500 0.688440
vt 0.575000 0.312500
vt 0.575000 0.688440
vt 0.587500 0.312500
vt 0.587500 0.688440
vt 0.600000 0.312500
vt 0.600000 0.688440
vt 0.612500 0.312500
vt 0.612500 0.688440
vt 0.625000 0.312500
vt 0.625000 0.688440
vt 0.626409 0.064408
vt 0.648603 0.107966
vt 0.500000 0.150000
vt 0.591842 0.029841
vt 0.548284 0.007647
vt 0.500000 -0.000000
vt 0.451716 0.007647
vt 0.408159 0.029841
vt 0.373591 0.064409
vt 0.351397 0.107966
vt 0.343750 0.156250
vt 0.351397 0.204534
vt 0.373591 0.248091
vt 0.408159 0.282659
vt 0.451716 0.304853
vt 0.500000 0.312500
vt 0.548284 0.304853
vt 0.591841 0.282659
vt 0.626409 0.248091
vt 0.648603 0.204534
vt 0.656250 0.156250
vt 0.500000 0.837500
vn -0.0000 1.0000 0.0000
vn 0.8910 0.0000 -0.4540
vn 0.7071 0.0000 -0.7071
vn 0.4540 0.0000 -0.8910
vn 0.1564 0.0000 -0.9877
vn -0.1564 0.0000 -0.9877
vn -0.4540 0.0000 -0.8910
vn -0.7071 0.0000 -0.7071
vn -0.8910 0.0000 -0.4540
vn -0.9877 0.0000 -0.1564
vn -0.9877 0.0000 0.1564
vn -0.8910 0.0000 0.4540
vn -0.7071 0.0000 0.7071
vn -0.4540 0.0000 0.8910
vn -0.1564 0.0000 0.9877
vn 0.1564 0.0000 0.9877
vn 0.4540 0.0000 0.8910
vn 0.7071 0.0000 0.7071
vn 0.8910 0.0000 0.4540
vn 0.9877 0.0000 0.1564
vn 0.9877 0.0000 -0.1564
vn 0.9511 0.0000 -0.3090
vn 0.8090 0.0000 -0.5878
vn 0.5878 0.0000 -0.8090
vn 0.3090 0.0000 -0.9511
vn -0.0000 0.0000 -1.0000
vn -0.3090 0.0000 -0.9511
vn -0.5878 0.0000 -0.8090
vn -0.8090 0.0000 -0.5878
vn -0.9511 0.0000 -0.3090
vn -1.0000 0.0000 0.0000
vn -0.9511 0.0000 0.3090
vn -0.8090 0.0000 0.5878
vn -0.5878 0.0000 0.8090
vn -0.3090 0.0000 0.9511
vn 0.0000 0.0000 1.0000
vn 0.3090 0.0000 0.9511
vn 0.5878 0.0000 0.8090
vn 0.8090 0.0000 0.5878
vn 0.9511 0.0000 0.3090
vn 1.0000 0.0000 0.0000
vn 0.0000 -1.0000 -0.0000
usemtl initialShadingGroup
s off
f 4/1/1 3/2/1 63/3/1 64/4/1
f 3/2/1 6/5/1 65/6/1 63/3/1
f 6/5/1 8/7/1 66/8/1 65/6/1
f 8/7/1 10/9/1 67/10/1 66/8/1
f 10/9/1 12/11/1 68/12/1 67/10/1
f 12/11/1 14/13/1 69/14/1 68/12/1
f 14/13/1 16/15/1 70/16/1 69/14/1
f 16/15/1 18/17/1 71/18/1 70/16/1
f 18/17/1 20/19/1 72/20/1 71/18/1
f 20/19/1 22/21/1 73/22/1 72/20/1
f 22/21/1 24/23/1 74/24/1 73/22/1
f 24/23/1 26/25/1 75/26/1 74/24/1
f 26/25/1 28/27/1 76/28/1 75/26/1
f 28/27/1 30/29/1 77/30/1 76/28/1
f 30/29/1 32/31/1 78/32/1 77/30/1
f 32/31/1 34/33/1 79/34/1 78/32/1
f 34/33/1 36/35/1 80/36/1 79/34/1
f 36/35/1 38/37/1 81/38/1 80/36/1
f 38/37/1 40/39/1 82/40/1 81/38/1
f 40/39/1 4/1/1 64/4/1 82/40/1
f 64/4/2 63/3/2 43/41/2 42/42/2
f 63/3/3 65/6/3 45/43/3 43/41/3
f 65/6/4 66/8/4 46/44/4 45/43/4
f 66/8/5 67/10/5 47/45/5 46/44/5
f 67/10/6 68/12/6 48/46/6 47/45/6
f 68/12/7 69/14/7 49/47/7 48/46/7
f 69/14/8 70/16/8 50/48/8 49/47/8
f 70/16/9 71/18/9 51/49/9 50/48/9
f 71/18/10 72/20/10 52/50/10 51/49/10
f 72/20/11 73/22/11 53/51/11 52/50/11
f 73/22/12 74/24/12 54/52/12 53/51/12
f 74/24/13 75/26/13 55/53/13 54/52/13
f 75/26/14 76/28/14 56/54/14 55/53/14
f 76/28/15 77/30/15 57/55/15 56/54/15
f 77/30/16 78/32/16 58/56/16 57/55/16
f 78/32/17 79/34/17 59/57/17 58/56/17
f 79/34/18 80/36/18 60/58/18 59/57/18
f 80/36/19 81/38/19 61/59/19 60/58/19
f 81/38/20 82/40/20 62/60/20 61/59/20
f 82/40/21 64/4/21 42/42/21 62/60/21
f 42/61/2 43/62/2 83/63/2 84/64/2
f 43/65/3 45/66/3 85/67/3 83/68/3
f 45/69/4 46/70/4 86/71/4 85/72/4
f 46/73/5 47/74/5 87/75/5 86/76/5
f 47/77/6 48/78/6 88/79/6 87/80/6
f 48/81/7 49/82/7 89/83/7 88/84/7
f 49/85/8 50/86/8 90/87/8 89/88/8
f 50/89/9 51/90/9 91/91/9 90/92/9
f 51/93/10 52/94/10 92/95/10 91/96/10
f 52/97/11 53/98/11 93/99/11 92/100/11
f 53/101/12 54/102/12 94/103/12 93/104/12
f 54/105/13 55/106/13 95/107/13 94/108/13
f 55/109/14 56/110/14 96/111/14 95/112/14
f 56/113/15 57/114/15 97/115/15 96/116/15
f 57/117/16 58/118/16 98/119/16 97/120/16
f 58/121/17 59/122/17 99/123/17 98/124/17
f 59/125/18 60/126/18 100/127/18 99/128/18
f 60/129/19 61/130/19 101/131/19 100/132/19
f 61/133/20 62/134/20 102/135/20 101/136/20
f 62/137/21 42/138/21 84/139/21 102/140/21
s 1
f 1/141/22 2/142/23 3/143/23 4/144/22
f 2/142/23 5/145/24 6/146/24 3/143/23
f 5/145/24 7/147/25 8/148/25 6/146/24
f 7/147/25 9/149/26 10/150/26 8/148/25
f 9/149/26 11/151/27 12/152/27 10/150/26
f 11/151/27 13/153/28 14/154/28 12/152/27
f 13/153/28 15/155/29 16/156/29 14/154/28
f 15/155/29 17/157/30 18/158/30 16/156/29
f 17/157/30 19/159/31 20/160/31 18/158/30
f 19/159/31 21/161/32 22/162/32 20/160/31
f 21/161/32 23/163/33 24/164/33 22/162/32
f 23/163/33 25/165/34 26/166/34 24/164/33
f 25/165/34 27/167/35 28/168/35 26/166/34
f 27/167/35 29/169/36 30/170/36 28/168/35
f 29/169/36 31/171/37 32/172/37 30/170/36
f 31/171/37 33/173/38 34/174/38 32/172/37
f 33/173/38 35/175/39 36/176/39 34/174/38
f 35/175/39 37/177/40 38/178/40 36/176/39
f 37/177/40 39/179/41 40/180/41 38/178/40
f 39/179/41 1/181/22 4/182/22 40/180/41
f 2/183/42 1/184/42 41/185/42
f 5/186/42 2/183/42 41/185/42
f 7/187/42 5/186/42 41/185/42
f 9/188/42 7/187/42 41/185/42
f 11/189/42 9/188/42 41/185/42
f 13/190/42 11/189/42 41/185/42
f 15/191/42 13/190/42 41/185/42
f 17/192/42 15/191/42 41/185/42
f 19/193/42 17/192/42 41/185/42
f 21/194/42 19/193/42 41/185/42
f 23/195/42 21/194/42 41/185/42
f 25/196/42 23/195/42 41/185/42
f 27/197/42 25/196/42 41/185/42
f 29/198/42 27/197/42 41/185/42
f 31/199/42 29/198/42 41/185/42
f 33/200/42 31/199/42 41/185/42
f 35/201/42 33/200/42 41/185/42
f 37/202/42 35/201/42 41/185/42
f 39/203/42 37/202/42 41/185/42
f 1/184/42 39/203/42 41/185/42
f 42/42/1 43/41/1 44/204/1
f 43/41/1 45/43/1 44/204/1
f 45/43/1 46/44/1 44/204/1
f 46/44/1 47/45/1 44/204/1
f 47/45/1 48/46/1 44/204/1
f 48/46/1 49/47/1 44/204/1
f 49/47/1 50/48/1 44/204/1
f 50/48/1 51/49/1 44/204/1
f 51/49/1 52/50/1 44/204/1
f 52/50/1 53/51/1 44/204/1
f 53/51/1 54/52/1 44/204/1
f 54/52/1 55/53/1 44/204/1
f 55/53/1 56/54/1 44/204/1
f 56/54/1 57/55/1 44/204/1
f 57/55/1 58/56/1 44/204/1
f 58/56/1 59/57/1 44/204/1
f 59/57/1 60/58/1 44/204/1
f 60/58/1 61/59/1 44/204/1
f 61/59/1 62/60/1 44/204/1
f 62/60/1 42/42/1 44/204/1
